<svg xmlns="http://www.w3.org/2000/svg" width="244" height="78" fill="none" viewBox="0 0 244 78"><path fill="#9599A9" fill-rule="evenodd" d="M81.512 40.373V14.79h2.453a3.614 3.614 0 0 1 3.619 3.61v11.375c3.931-3.499 7.274-4.9 11.73-4.99 8.547-.174 15.964 6.159 16.669 14.658.842 10.154-6.559 17.797-16.202 17.797-10.587 0-18.269-6.549-18.269-16.867Zm5.971 2.009c.599 5.286 5.659 9.652 10.994 9.736 6.952.106 11.688-4.413 11.688-11.1 0-6.686-4.63-11.1-11.386-11.1-7.221-.016-12.117 5.217-11.296 12.464Zm38.63-16.957v4.556c3.82-4.228 6.083-5.365 10.555-5.365 1.3.002 2.599.106 3.883.312v6.052a15.735 15.735 0 0 0-4.207-.56c-3.237 0-5.955 1.057-7.947 3.055-1.749 1.75-2.268 3.119-2.268 5.867v16.852h-6.294V25.425h6.278ZM142.045 35.6c.324-2.997.906-4.62 2.199-6.179 2.591-3.171 7.254-4.805 13.855-4.805 5.246 0 9.066.814 11.72 2.559 2.204 1.432 3.11 3.557 3.11 7.3v13.663c0 2.997.779 4.054 2.914 3.996.477-.017.953-.06 1.426-.127v4.118a9.371 9.371 0 0 1-3.301.497c-3.948 0-5.76-1.184-6.989-4.62-3.883 3.557-7.9 5.053-13.659 5.053-7.704 0-12.43-3.494-12.43-9.176a8.077 8.077 0 0 1 4.854-7.485c2.331-.999 3.756-1.31 10.421-1.998 5.696-.56 6.671-.687 8.287-1.189 1.748-.56 2.527-1.496 2.527-3.055 0-3.309-2.781-4.805-8.61-4.805-5.51 0-8.35 1.09-9.489 3.87a3.756 3.756 0 0 1-3.47 2.367l-3.365.016Zm24.902 5.244a61.784 61.784 0 0 1-12.239 2.246c-5.632.56-7.38 1.623-7.38 4.43 0 3.118 2.591 4.757 7.703 4.757 4.207 0 7.381-1.058 9.649-3.119 1.812-1.686 2.267-2.87 2.267-5.814v-2.5Zm25.517 15.344h-1.621a3.71 3.71 0 0 1-3.359-2.082l-13.58-28.68h3.773a5.548 5.548 0 0 1 5.102 3.26l9.06 20.615 9.362-20.694a5.549 5.549 0 0 1 5.076-3.203h3.428l-13.898 28.733a3.708 3.708 0 0 1-3.343 2.051Zm21.496-13.6c.646 5.93 5.298 9.61 12.233 9.61 3.937 0 6.888-1.169 8.716-3.5a5.621 5.621 0 0 1 4.398-2.114h3.65c-3.179 6.988-8.869 10.423-17.352 10.423-10.596 0-17.739-6.427-17.739-16.036 0-9.61 7.317-16.35 17.872-16.35 7.635 0 13.775 3.431 16.25 9.177 1.102 2.643 1.552 4.99 1.552 8.795l-29.58-.005Zm23.174-4.757c-1.425-5.429-5.632-8.49-11.46-8.49-5.828 0-10.035 3.061-11.524 8.49h22.984Z" clip-rule="evenodd"/><path fill="url(#a)" fill-rule="evenodd" d="m62.038 17.836 1.746-4.28s-2.222-2.378-4.92-5.073c-2.697-2.695-8.41-1.11-8.41-1.11L43.946 0H21.094l-6.506 7.374s-5.713-1.586-8.411 1.11c-2.698 2.694-4.92 5.072-4.92 5.072l1.746 4.28-2.222 6.34s6.534 24.722 7.3 27.741c1.508 5.945 2.54 8.243 6.824 11.255 4.285 3.012 12.061 8.243 13.33 9.036 1.27.792 2.857 2.142 4.285 2.142 1.429 0 3.016-1.35 4.285-2.142 1.27-.793 9.046-6.024 13.331-9.036 4.285-3.012 5.316-5.31 6.824-11.255.765-3.019 7.3-27.74 7.3-27.74l-2.222-6.341Z" clip-rule="evenodd"/><path fill="#fff" fill-rule="evenodd" d="M40.614 13.397c.952 0 8.015-1.347 8.015-1.347s8.369 10.105 8.369 12.265c0 1.786-.72 2.485-1.568 3.308-.177.172-.36.35-.544.545l-6.275 6.656a11.2 11.2 0 0 1-.205.209c-.626.63-1.548 1.555-.898 3.094l.134.313c.714 1.667 1.594 3.725.473 5.81-1.193 2.218-3.236 3.699-4.545 3.454-1.31-.245-4.384-1.85-5.515-2.583-1.13-.733-4.714-3.686-4.714-4.815 0-.942 2.577-2.51 3.83-3.271.248-.152.445-.271.559-.348.129-.087.345-.22.611-.386 1.143-.71 3.207-1.99 3.259-2.558.063-.7.04-.905-.882-2.635a36.964 36.964 0 0 0-.662-1.169c-.877-1.508-1.86-3.196-1.642-4.405.245-1.365 2.387-2.148 4.2-2.81.227-.084.449-.165.661-.245.53-.2 1.195-.448 1.89-.708 1.81-.678 3.823-1.43 4.155-1.584.459-.211.34-.413-1.051-.545a40.21 40.21 0 0 1-.676-.07c-1.722-.182-4.898-.52-6.443-.09-.303.085-.644.178-1 .274-1.736.47-3.862 1.045-4.066 1.376a3.187 3.187 0 0 1-.104.155c-.196.278-.323.459-.107 1.637.065.352.197 1.042.36 1.896.48 2.5 1.227 6.4 1.322 7.276.013.123.027.242.041.355.12.978.2 1.628-.936 1.888l-.298.068c-1.282.294-3.162.725-3.841.725-.68 0-2.561-.432-3.844-.725l-.295-.068c-1.137-.26-1.057-.91-.937-1.888l.042-.355c.094-.877.844-4.786 1.323-7.286.162-.85.294-1.536.358-1.886.216-1.178.089-1.36-.106-1.637a2.901 2.901 0 0 1-.104-.155c-.205-.331-2.33-.907-4.066-1.376-.357-.096-.697-.189-1.001-.273-1.544-.43-4.72-.093-6.443.09a84.41 84.41 0 0 1-.676.07c-1.391.131-1.51.333-1.05.544.331.153 2.342.906 4.153 1.583.696.26 1.361.51 1.891.71.212.08.434.16.66.243 1.815.663 3.956 1.446 4.201 2.81.218 1.21-.764 2.898-1.641 4.405-.237.408-.467.802-.663 1.17-.921 1.73-.945 1.935-.881 2.635.051.568 2.114 1.848 3.257 2.558.267.165.483.3.613.386.113.077.31.196.558.348 1.252.76 3.83 2.329 3.83 3.27 0 1.13-3.583 4.083-4.714 4.816-1.13.733-4.205 2.338-5.515 2.583-1.309.245-3.352-1.236-4.545-3.454-1.121-2.085-.24-4.142.473-5.81l.134-.313c.65-1.539-.272-2.465-.898-3.094a7.757 7.757 0 0 1-.205-.21l-6.275-6.655a17.238 17.238 0 0 0-.544-.545c-.848-.823-1.567-1.522-1.567-3.308 0-2.16 8.369-12.265 8.369-12.265s7.062 1.347 8.014 1.347c.76 0 2.227-.505 3.756-1.03.388-.134.779-.268 1.164-.397 1.904-.634 3.174-.638 3.174-.638s1.27.004 3.174.638c.384.129.776.263 1.163.396 1.53.527 2.996 1.031 3.756 1.031Zm-1.212 35.745c1.493.768 2.552 1.313 2.953 1.564.518.324.202.934-.27 1.268-.472.333-6.814 5.238-7.43 5.78l-.249.223c-.593.534-1.35 1.215-1.885 1.215-.537 0-1.294-.682-1.887-1.216l-.248-.222c-.616-.542-6.957-5.447-7.43-5.78-.471-.334-.787-.944-.27-1.268.401-.25 1.462-.797 2.956-1.566l1.42-.732c2.236-1.156 5.024-2.139 5.459-2.139.435 0 3.222.983 5.458 2.14l1.423.733Z" clip-rule="evenodd"/><path fill="url(#b)" fill-rule="evenodd" d="M50.453 7.374 43.947 0H21.094l-6.506 7.374s-5.713-1.586-8.411 1.11c0 0 7.617-.688 10.236 3.566 0 0 7.062 1.347 8.014 1.347.952 0 3.015-.792 4.92-1.426 1.904-.635 3.174-.64 3.174-.64s1.27.005 3.173.64c1.905.634 3.968 1.426 4.92 1.426s8.014-1.347 8.014-1.347c2.619-4.254 10.236-3.567 10.236-3.567-2.697-2.695-8.41-1.11-8.41-1.11Z" clip-rule="evenodd"/><mask id="c" width="53" height="14" x="6" y="0" maskUnits="userSpaceOnUse" style="mask-type:alpha"><path fill="#fff" fill-rule="evenodd" d="M50.453 7.374 43.947 0H21.094l-6.506 7.374s-5.713-1.586-8.411 1.11c0 0 7.617-.688 10.236 3.566 0 0 7.062 1.347 8.014 1.347.952 0 3.015-.792 4.92-1.426 1.904-.635 3.174-.64 3.174-.64s1.27.005 3.173.64c1.905.634 3.968 1.426 4.92 1.426s8.014-1.347 8.014-1.347c2.619-4.254 10.236-3.567 10.236-3.567-2.697-2.695-8.41-1.11-8.41-1.11Z" clip-rule="evenodd"/></mask><path fill="#9599A9" d="M211.161 71.864c.59.105 1.09.416 1.501.933.411.516.616 1.1.616 1.754a2.72 2.72 0 0 1-.442 1.517c-.285.443-.701.796-1.249 1.059-.548.253-1.185.38-1.912.38h-4.394V66.521h4.188c.749 0 1.391.127 1.929.38.537.252.943.595 1.217 1.027.274.421.411.895.411 1.422 0 .632-.169 1.16-.506 1.58-.337.422-.79.733-1.359.933Zm-4.078-.727h2.228c.59 0 1.049-.132 1.375-.395.338-.274.506-.664.506-1.17 0-.495-.168-.88-.506-1.153-.326-.285-.785-.427-1.375-.427h-2.228v3.145Zm2.434 4.9c.611 0 1.09-.148 1.438-.443.348-.295.522-.706.522-1.233 0-.537-.185-.964-.554-1.28-.368-.316-.858-.474-1.469-.474h-2.371v3.43h2.434Zm8.153-8.061V71.2h3.793v1.47h-3.793v3.367h4.267v1.47h-6.069v-11h6.069v1.47h-4.267Zm14.215-1.454v1.47h-2.924v9.514h-1.801v-9.514h-2.94v-1.47h7.665Zm7.705 8.74h-4.599l-.791 2.244h-1.88l3.935-11h2.086l3.936 11h-1.897l-.79-2.244Zm-.506-1.47-1.786-5.105-1.802 5.105h3.588Z"/><defs><linearGradient id="a" x1=".781" x2="64.26" y1="74.875" y2="74.875" gradientUnits="userSpaceOnUse"><stop stop-color="#F50"/><stop offset=".41" stop-color="#F50"/><stop offset=".582" stop-color="#FF2000"/><stop offset="1" stop-color="#FF2000"/></linearGradient><linearGradient id="b" x1="7.309" x2="58.864" y1="13.348" y2="13.348" gradientUnits="userSpaceOnUse"><stop stop-color="#FF452A"/><stop offset="1" stop-color="#FF2000"/></linearGradient></defs></svg>