<svg xmlns="http://www.w3.org/2000/svg" viewBox="0 0 64 64"><linearGradient id="t2liHQLzyo9IjGoYekQjDa" x1="32" x2="32" y1="9" y2="44" gradientUnits="userSpaceOnUse" spreadMethod="reflect"><stop offset="0" stop-color="#1a6dff"/><stop offset="1" stop-color="#c822ff"/></linearGradient><path fill="url(#t2liHQLzyo9IjGoYekQjDa)" d="M54.55,24.13c-0.61-5.02-5.03-8.92-10.43-9.22C41.91,11.25,37.81,9,33.27,9 c-5.05,0-9.56,2.84-11.49,7.14c-0.42-0.05-0.83-0.07-1.23-0.07c-5.18,0-9.66,3.32-10.86,7.96C5.67,25.68,3,29.45,3,33.57 C3,39.32,8.02,44,14.18,44H24v-2h-9.82C9.12,42,5,38.22,5,33.57c0-3.5,2.31-6.59,5.88-7.85l0.53-0.19l0.11-0.56 c0.8-4,4.6-6.9,9.03-6.9c0.54,0,1.11,0.05,1.7,0.15l0.82,0.15l0.29-0.79c1.42-3.94,5.41-6.58,9.91-6.58c4,0,7.6,2.06,9.37,5.37 l0.28,0.52l0.6,0.01c4.85,0.03,8.84,3.53,9.09,7.98l0.04,0.65l0.61,0.23c3.49,1.3,5.74,4.37,5.74,7.81c0,4.65-4.12,8.43-9.18,8.43 H37v2h12.82C55.98,44,61,39.32,61,33.57C61,29.48,58.49,25.84,54.55,24.13z M42.5,33h-19c-1.93,0-3.5,1.57-3.5,3.5 c0,1.88,1.49,3.4,3.35,3.48L25,40v-2h-1.5c-0.83,0-1.5-0.67-1.5-1.5c0-0.83,0.67-1.5,1.5-1.5H40l2.58,0.01 C43.37,35.05,44,35.7,44,36.5c0,0.83-0.67,1.5-1.5,1.5H39v2h3.5c1.93,0,3.5-1.57,3.5-3.5S44.43,33,42.5,33z"/><linearGradient id="t2liHQLzyo9IjGoYekQjDb" x1="31.304" x2="31.304" y1="35" y2="60" gradientUnits="userSpaceOnUse" spreadMethod="reflect"><stop offset="0" stop-color="#6dc7ff"/><stop offset="1" stop-color="#e6abff"/></linearGradient><path fill="url(#t2liHQLzyo9IjGoYekQjDb)" d="M25.48,35l-5.368,12.568C19.822,48.246,20.319,49,21.057,49h6.483l-3.471,9.679 c-0.347,0.9,0.693,1.698,1.473,1.13l16-11.837C42.395,47.351,41.955,46,40.899,46H36.45l6.13-10.99L25.48,35z"/></svg>